<svg width="24" height="24" viewBox="0 0 24 24" fill="none" xmlns="http://www.w3.org/2000/svg">
<path d="M12.4737 21H21M14.3684 5.84211L18.1579 9.63158M16.3861 3.79162C16.6371 3.54064 16.935 3.34156 17.263 3.20573C17.5909 3.06991 17.9423 3 18.2973 3C18.6522 3 19.0036 3.06991 19.3315 3.20573C19.6595 3.34156 19.9574 3.54064 20.2084 3.79162C20.4594 4.04259 20.6584 4.34054 20.7943 4.66845C20.9301 4.99636 21 5.34782 21 5.70275C21 6.05768 20.9301 6.40913 20.7943 6.73705C20.6584 7.06496 20.4594 7.36291 20.2084 7.61388L6.83456 20.9999H3L3 17.1653L16.3861 3.79162Z" stroke="#ffffff" stroke-width="2" stroke-linecap="round" stroke-linejoin="round"/>
</svg>
